<svg width="40" height="40" viewBox="0 0 40 40" fill="none" xmlns="http://www.w3.org/2000/svg">
<circle cx="20" cy="20" r="20" fill="#A0A0A0"/>
<path d="M25.7734 25.583V28H15.0742V25.9375L20.1338 20.5127C20.6423 19.9469 21.0433 19.4492 21.3369 19.0195C21.6305 18.5827 21.8418 18.1924 21.9707 17.8486C22.1068 17.4977 22.1748 17.1647 22.1748 16.8496C22.1748 16.377 22.096 15.9723 21.9385 15.6357C21.7809 15.292 21.5482 15.027 21.2402 14.8408C20.9395 14.6546 20.5671 14.5615 20.123 14.5615C19.6504 14.5615 19.2422 14.6761 18.8984 14.9053C18.5618 15.1344 18.304 15.4531 18.125 15.8613C17.9531 16.2695 17.8672 16.7314 17.8672 17.2471H14.7627C14.7627 16.3161 14.9847 15.4639 15.4287 14.6904C15.8727 13.9098 16.4993 13.2904 17.3086 12.832C18.1178 12.3665 19.0775 12.1338 20.1875 12.1338C21.2832 12.1338 22.207 12.3128 22.959 12.6709C23.7181 13.0218 24.291 13.5303 24.6777 14.1963C25.0716 14.8551 25.2686 15.6429 25.2686 16.5596C25.2686 17.0752 25.1862 17.5801 25.0215 18.0742C24.8568 18.5612 24.6204 19.0482 24.3125 19.5352C24.0117 20.015 23.6465 20.502 23.2168 20.9961C22.7871 21.4902 22.3109 22.0023 21.7881 22.5322L19.0703 25.583H25.7734Z" fill="white"/>
</svg>
