<svg width="40" height="40" viewBox="0 0 40 40" fill="none" xmlns="http://www.w3.org/2000/svg">
<circle cx="20" cy="20" r="20" fill="#A0A0A0"/>
<path d="M18.2432 18.8369H19.8975C20.4274 18.8369 20.8643 18.7474 21.208 18.5684C21.5518 18.3822 21.806 18.1243 21.9707 17.7949C22.1426 17.4583 22.2285 17.068 22.2285 16.624C22.2285 16.223 22.1497 15.8685 21.9922 15.5605C21.8418 15.2454 21.609 15.002 21.2939 14.8301C20.9788 14.651 20.5814 14.5615 20.1016 14.5615C19.722 14.5615 19.3711 14.6367 19.0488 14.7871C18.7266 14.9375 18.4688 15.1488 18.2754 15.4209C18.082 15.693 17.9854 16.0225 17.9854 16.4092H14.8809C14.8809 15.5498 15.11 14.8014 15.5684 14.1641C16.0339 13.5267 16.6569 13.029 17.4375 12.6709C18.2181 12.3128 19.0775 12.1338 20.0156 12.1338C21.0755 12.1338 22.0029 12.3057 22.7979 12.6494C23.5928 12.986 24.2122 13.4837 24.6562 14.1426C25.1003 14.8014 25.3223 15.6178 25.3223 16.5918C25.3223 17.0859 25.2077 17.5658 24.9785 18.0312C24.7493 18.4896 24.4199 18.9049 23.9902 19.2773C23.5677 19.6426 23.0521 19.9362 22.4434 20.1582C21.8346 20.373 21.1507 20.4805 20.3916 20.4805H18.2432V18.8369ZM18.2432 21.1895V19.5889H20.3916C21.2438 19.5889 21.9922 19.6855 22.6367 19.8789C23.2812 20.0723 23.8219 20.3516 24.2588 20.7168C24.6956 21.0749 25.0251 21.501 25.2471 21.9951C25.4691 22.4821 25.5801 23.0228 25.5801 23.6172C25.5801 24.3477 25.4404 24.9993 25.1611 25.5723C24.8818 26.138 24.488 26.6178 23.9795 27.0117C23.4782 27.4056 22.891 27.7064 22.2178 27.9141C21.5446 28.1146 20.8105 28.2148 20.0156 28.2148C19.3568 28.2148 18.7087 28.1253 18.0713 27.9463C17.4411 27.7601 16.8682 27.4844 16.3525 27.1191C15.8441 26.7467 15.4359 26.2812 15.1279 25.7227C14.8271 25.1569 14.6768 24.4873 14.6768 23.7139H17.7812C17.7812 24.1149 17.8815 24.473 18.082 24.7881C18.2826 25.1032 18.5583 25.3503 18.9092 25.5293C19.2673 25.7083 19.6647 25.7979 20.1016 25.7979C20.5957 25.7979 21.0182 25.7083 21.3691 25.5293C21.7272 25.3431 21.9993 25.0853 22.1855 24.7559C22.3789 24.4193 22.4756 24.029 22.4756 23.585C22.4756 23.012 22.3717 22.5537 22.1641 22.21C21.9564 21.859 21.6592 21.6012 21.2725 21.4365C20.8857 21.2718 20.4274 21.1895 19.8975 21.1895H18.2432Z" fill="white"/>
</svg>
