<svg width="102" height="109" viewBox="0 0 102 109" fill="none" xmlns="http://www.w3.org/2000/svg">
<path d="M96.1491 29.0971C96.08 34.4353 95.4046 45.8451 91.4536 58.2895C84.445 80.3928 70.8424 95.0771 51.0023 101.95C31.2526 95.1055 17.6766 80.5235 10.6414 58.5738C6.63185 46.0725 5.94055 34.4865 5.85547 29.0971C14.2254 25.5667 17.5171 17.9034 18.3785 12.298C21.4415 11.0132 24.9884 9.86479 28.9819 8.88697C43.3874 5.35091 58.6225 5.35091 73.0333 8.88697C77.0162 9.86479 80.5737 11.0132 83.6314 12.298C84.4875 17.9034 87.7738 25.5667 96.1491 29.0971Z" fill="#F6601B"/>
<path opacity="0.63" d="M51.0005 105.309V6.10352e-05C58.7217 6.10352e-05 66.4429 0.926715 74.0046 2.78002C78.7214 3.93976 83.5339 5.48608 87.7561 7.54404C87.7561 7.54404 87.538 20.8697 100.487 24.0987C100.487 24.0987 103.943 88.0833 51.0005 105.309Z" fill="url(#paint0_linear_347_8416)"/>
<path d="M51.0027 108.42C50.8591 108.42 50.7155 108.397 50.5772 108.352C22.6383 99.2613 10.3812 77.2036 5.02096 60.2964C-0.759319 42.0703 0.0170576 26.2263 0.0542811 25.5611C0.0915046 24.8732 0.548822 24.2877 1.18162 24.1342C12.7847 21.2405 12.79 9.61474 12.7847 9.12015C12.7794 8.50048 13.1144 7.93198 13.6409 7.67616C17.5334 5.77737 22.2555 4.14009 27.6741 2.80981C42.9358 -0.936602 59.0748 -0.936602 74.3365 2.80981C79.7552 4.14009 84.4772 5.77737 88.3644 7.67616C88.8909 7.93198 89.2259 8.50048 89.2153 9.12015C89.21 9.60905 89.2153 21.2349 100.818 24.1285C101.446 24.2877 101.903 24.8676 101.946 25.5555C101.983 26.2206 102.759 42.0647 96.979 60.2907C91.6188 77.1979 79.367 99.2557 51.4227 108.346C51.2845 108.397 51.1409 108.42 51.0027 108.42ZM2.93645 26.863C2.87263 30.7856 3.05343 44.4296 7.81805 59.3868C15.2521 82.7635 29.7799 98.1812 51.0027 105.225C72.2201 98.1812 86.7479 82.7635 94.1873 59.3868C98.9466 44.4296 99.1274 30.7856 99.0689 26.863C88.3379 23.5714 86.6256 13.4464 86.3544 10.1321C82.7969 8.48343 78.5374 7.04512 73.6824 5.85128C58.8462 2.2072 43.1591 2.2072 28.3229 5.85128C23.4679 7.04512 19.2084 8.48343 15.6509 10.1321C15.3797 13.4521 13.6675 23.5714 2.93645 26.863Z" fill="url(#paint1_linear_347_8416)"/>
<path d="M50.8344 24.962C47.2657 24.962 44.3657 27.8181 44.3657 31.3328V37.7109H46.1087V31.3328C46.1087 28.7652 48.2311 26.6787 50.8344 26.6787C53.4414 26.6787 55.56 28.7689 55.56 31.3328V37.7109H57.303V31.3328C57.3068 27.8181 54.403 24.962 50.8344 24.962Z" fill="url(#paint2_linear_347_8416)"/>
<path d="M57.5931 47.3003H43.8444C42.8264 47.3003 42 46.4863 42 45.4838V36.268C42 35.2655 42.8264 34.4515 43.8444 34.4515H57.5931C58.6111 34.4515 59.4376 35.2655 59.4376 36.268V45.4838C59.4413 46.4863 58.6149 47.3003 57.5931 47.3003Z" fill="url(#paint3_linear_347_8416)"/>
<path d="M52.5517 40.0304C52.5517 38.9058 51.5074 38.0216 50.3241 38.2694C49.6292 38.4137 49.0695 38.9687 48.9305 39.6531C48.7614 40.4781 49.1596 41.2254 49.8133 41.5917C49.971 41.6805 50.0687 41.8433 50.0687 42.0208V44.0223C50.0687 44.3775 50.3617 44.666 50.7223 44.666C51.0829 44.666 51.376 44.3775 51.376 44.0223V42.0208C51.376 41.8396 51.4774 41.6768 51.6351 41.588C52.1798 41.2772 52.5517 40.7001 52.5517 40.0304Z" fill="#F6601B"/>
<path d="M33.1401 64.5596H35.0605C35.6757 64.5596 36.1828 64.4584 36.5819 64.2558C36.9809 64.0452 37.2761 63.7535 37.4673 63.3809C37.6668 63.0001 37.7666 62.5586 37.7666 62.0563C37.7666 61.6026 37.6751 61.2016 37.4922 60.8532C37.3176 60.4967 37.0474 60.2213 36.6816 60.0268C36.3159 59.8243 35.8545 59.723 35.2975 59.723C34.8568 59.723 34.4495 59.8081 34.0754 59.9782C33.7013 60.1484 33.402 60.3874 33.1775 60.6952C32.9531 61.0031 32.8408 61.3757 32.8408 61.8132H29.2369C29.2369 60.841 29.503 59.9944 30.035 59.2734C30.5754 58.5524 31.2987 57.9893 32.2048 57.5842C33.111 57.1792 34.1086 56.9766 35.1977 56.9766C36.4281 56.9766 37.5047 57.1711 38.4275 57.5599C39.3503 57.9407 40.0694 58.5038 40.5848 59.2491C41.1003 59.9944 41.358 60.918 41.358 62.0198C41.358 62.5788 41.225 63.1216 40.9589 63.6482C40.6929 64.1667 40.3105 64.6366 39.8117 65.0579C39.3212 65.4711 38.7226 65.8032 38.016 66.0544C37.3093 66.2974 36.5154 66.4189 35.6342 66.4189H33.1401V64.5596ZM33.1401 67.221V65.4103H35.6342C36.6235 65.4103 37.4922 65.5197 38.2404 65.7384C38.9886 65.9572 39.6163 66.2731 40.1234 66.6863C40.6305 67.0914 41.013 67.5734 41.2707 68.1324C41.5284 68.6833 41.6573 69.295 41.6573 69.9674C41.6573 70.7938 41.4951 71.531 41.1709 72.1791C40.8467 72.8191 40.3895 73.3619 39.7992 73.8075C39.2173 74.2531 38.5356 74.5934 37.7541 74.8283C36.9726 75.0552 36.1205 75.1686 35.1977 75.1686C34.4329 75.1686 33.6805 75.0673 32.9406 74.8648C32.209 74.6541 31.5439 74.3422 30.9454 73.9291C30.3551 73.5078 29.8812 72.9812 29.5237 72.3493C29.1746 71.7092 29 70.9517 29 70.0768H32.6039C32.6039 70.5305 32.7203 70.9355 32.9531 71.292C33.1858 71.6485 33.5059 71.928 33.9133 72.1305C34.3289 72.3331 34.7903 72.4343 35.2975 72.4343C35.8711 72.4343 36.3616 72.3331 36.7689 72.1305C37.1846 71.9199 37.5005 71.6282 37.7167 71.2556C37.9411 70.8748 38.0534 70.4332 38.0534 69.931C38.0534 69.2828 37.9328 68.7643 37.6917 68.3755C37.4506 67.9785 37.1056 67.6868 36.6567 67.5005C36.2078 67.3142 35.6757 67.221 35.0605 67.221H33.1401Z" fill="white"/>
<path d="M50.0747 74.9255H46.1216L46.1465 72.0819H50.0747C51.0556 72.0819 51.8828 71.8672 52.5562 71.4378C53.2296 71.0004 53.7367 70.3644 54.0776 69.5299C54.4268 68.6955 54.6013 67.6868 54.6013 66.504V65.6412C54.6013 64.7338 54.5016 63.9358 54.3021 63.2472C54.1108 62.5586 53.824 61.9793 53.4416 61.5094C53.0592 61.0395 52.5895 60.6871 52.0325 60.4522C51.4755 60.2091 50.8353 60.0876 50.1121 60.0876H46.0468V57.2318H50.1121C51.3258 57.2318 52.4357 57.4344 53.4416 57.8394C54.4559 58.2364 55.3329 58.8076 56.0728 59.5529C56.8127 60.2982 57.3822 61.1894 57.7812 62.2264C58.1886 63.2553 58.3923 64.4017 58.3923 65.6655V66.504C58.3923 67.7597 58.1886 68.9061 57.7812 69.9431C57.3822 70.9801 56.8127 71.8713 56.0728 72.6166C55.3412 73.3538 54.4642 73.925 53.4416 74.3301C52.4274 74.7271 51.305 74.9255 50.0747 74.9255ZM48.2415 57.2318V74.9255H44.5005V57.2318H48.2415Z" fill="white"/>
<path d="M70.5632 70.2955C70.5632 69.9796 70.5133 69.696 70.4136 69.4449C70.3221 69.1856 70.1475 68.9507 69.8898 68.74C69.6321 68.5213 69.2705 68.3066 68.8049 68.096C68.3394 67.8853 67.7366 67.6666 66.9967 67.4397C66.1737 67.1805 65.3922 66.8888 64.6523 66.5648C63.9207 66.2407 63.2723 65.864 62.707 65.4346C62.15 64.9971 61.7094 64.4908 61.3851 63.9156C61.0692 63.3404 60.9113 62.672 60.9113 61.9104C60.9113 61.1732 61.0775 60.5048 61.4101 59.9053C61.7426 59.2977 62.2082 58.7792 62.8067 58.3498C63.4053 57.9123 64.1119 57.5761 64.9267 57.3412C65.7497 57.1062 66.6517 56.9888 67.6327 56.9888C68.9712 56.9888 70.1392 57.2237 71.1368 57.6936C72.1345 58.1635 72.9076 58.8076 73.4563 59.6258C74.0133 60.4441 74.2918 61.3798 74.2918 62.433H70.5757C70.5757 61.9145 70.4634 61.4608 70.239 61.0719C70.0228 60.675 69.6903 60.3631 69.2414 60.1362C68.8008 59.9094 68.2437 59.796 67.5704 59.796C66.9219 59.796 66.3815 59.8932 65.9492 60.0876C65.5169 60.2739 65.1927 60.5291 64.9766 60.8532C64.7604 61.1692 64.6523 61.5256 64.6523 61.9226C64.6523 62.2224 64.7271 62.4938 64.8768 62.7368C65.0347 62.9799 65.2675 63.2067 65.5751 63.4173C65.8827 63.628 66.261 63.8265 66.7099 64.0128C67.1588 64.1991 67.6784 64.3814 68.2687 64.5596C69.258 64.8513 70.1267 65.1794 70.875 65.544C71.6315 65.9086 72.2633 66.3177 72.7704 66.7714C73.2776 67.225 73.66 67.7395 73.9177 68.3147C74.1754 68.8899 74.3043 69.5421 74.3043 70.2712C74.3043 71.0409 74.1505 71.7295 73.8429 72.3371C73.5353 72.9447 73.0905 73.4592 72.5086 73.8804C71.9266 74.3017 71.2324 74.6217 70.426 74.8405C69.6196 75.0592 68.7176 75.1686 67.72 75.1686C66.8221 75.1686 65.9368 75.0552 65.0638 74.8283C64.1909 74.5934 63.397 74.241 62.682 73.7711C61.9754 73.3012 61.4101 72.7017 60.9861 71.9725C60.5621 71.2434 60.3501 70.3806 60.3501 69.3841H64.1036C64.1036 69.935 64.1909 70.4008 64.3655 70.7816C64.5401 71.1624 64.7853 71.4702 65.1013 71.7052C65.4255 71.9401 65.8079 72.1103 66.2485 72.2156C66.6974 72.3209 67.1879 72.3736 67.72 72.3736C68.3685 72.3736 68.9005 72.2844 69.3162 72.1062C69.7402 71.928 70.0519 71.6809 70.2514 71.3649C70.4593 71.049 70.5632 70.6925 70.5632 70.2955Z" fill="white"/>
<defs>
<linearGradient id="paint0_linear_347_8416" x1="158.239" y1="102.376" x2="158.239" y2="12.1663" gradientUnits="userSpaceOnUse">
<stop stop-color="#FF4D00"/>
<stop offset="1" stop-color="#FF881A" stop-opacity="0.2"/>
</linearGradient>
<linearGradient id="paint1_linear_347_8416" x1="16.9643" y1="4.31747" x2="90.843" y2="79.7915" gradientUnits="userSpaceOnUse">
<stop stop-color="#EFEFF1"/>
<stop offset="1" stop-color="#D5D5D7"/>
</linearGradient>
<linearGradient id="paint2_linear_347_8416" x1="44.3662" y1="31.3364" x2="57.3061" y2="31.3364" gradientUnits="userSpaceOnUse">
<stop stop-color="white"/>
<stop offset="1" stop-color="#DEE3FC"/>
</linearGradient>
<linearGradient id="paint3_linear_347_8416" x1="42.0012" y1="40.8749" x2="59.4403" y2="40.8749" gradientUnits="userSpaceOnUse">
<stop stop-color="white"/>
<stop offset="1" stop-color="#DEE3FC"/>
</linearGradient>
</defs>
</svg>
