<svg width="67" height="66" viewBox="0 0 67 66" fill="none" xmlns="http://www.w3.org/2000/svg">
<path d="M17.0795 56.7431V5.24377C17.0795 5.24377 16.8016 2 19.7567 2H56.414C59.4721 2 59.3821 5.24377 59.3821 5.24377V56.7431" stroke="#F6601B" stroke-width="3"/>
<path d="M64.7488 7.36694V56.743" stroke="#F6601B" stroke-width="3"/>
<path d="M17.1447 18.8053C19.0071 19.1922 20.8232 19.777 22.562 20.5501L22.6027 20.5681L22.6443 20.5838C24.992 21.4648 27.3406 21.9502 29.3716 22.3698C30.1766 22.5362 30.9317 22.6922 31.6171 22.8585C32.1768 22.9943 32.4277 23.3509 32.5611 23.9231C32.6297 24.2174 32.6474 24.5166 32.6446 24.7523C32.6433 24.8669 32.6372 24.9584 32.6321 25.0163C32.6296 25.0451 32.6274 25.0651 32.6263 25.0748C32.626 25.0765 32.6259 25.0779 32.6257 25.079C32.6255 25.0809 32.6254 25.0817 32.6255 25.0813L32.619 25.1251L32.615 25.1795L34.1111 25.2882C32.615 25.1795 32.615 25.1795 32.615 25.1796L32.615 25.18L32.6149 25.1817L32.6144 25.1887L32.6123 25.2166L32.6043 25.3261L32.5735 25.7442C32.5468 26.1056 32.5082 26.6245 32.4605 27.2538C32.3653 28.5128 32.2342 30.2131 32.0908 31.9797C31.7994 35.5704 31.4689 39.2715 31.2886 40.2468C30.4342 44.8417 26.8063 49.0781 23.1379 52.2709C21.3342 53.8408 19.5838 55.1044 18.2836 55.9754C17.7393 56.3401 17.2758 56.6347 16.9228 56.8529C16.5765 56.6313 16.1231 56.333 15.5913 55.9648C14.3139 55.0804 12.5945 53.7998 10.8241 52.2153C7.2232 48.9924 3.66651 44.7368 2.84762 40.176L2.846 40.167L2.84428 40.158C2.66565 39.2285 2.33554 35.6119 2.04365 32.0864C1.90028 30.3546 1.76921 28.6867 1.67397 27.4513C1.62636 26.8337 1.58772 26.3245 1.56099 25.9697L1.5302 25.5594L1.52219 25.4519L1.52016 25.4246L1.51965 25.4177L1.51953 25.416L1.5195 25.4156C1.51949 25.4155 1.51949 25.4155 0.0235792 25.5262L1.51949 25.4155L1.5167 25.3778L1.51295 25.3478C1.51284 25.3467 1.5127 25.3453 1.51253 25.3436C1.51158 25.334 1.50979 25.3143 1.50784 25.2859C1.50393 25.2288 1.49958 25.1386 1.50003 25.0252C1.50097 24.7925 1.5221 24.4933 1.59255 24.1945C1.72941 23.614 1.97931 23.2521 2.45099 23.0955C5.41748 22.5093 8.34231 21.7288 11.2066 20.7588L11.2804 20.7338L11.3512 20.7013C13.2043 19.8507 15.1481 19.2147 17.1447 18.8053Z" fill="white" stroke="#828282" stroke-width="3"/>
<path d="M17.1155 25.3623C15.8332 25.6141 14.5851 26.0206 13.398 26.573C11.7617 27.1348 10.0905 27.5859 8.3954 27.9234C6.97265 28.3425 7.20213 30.2052 7.20213 30.2052C7.20213 30.2052 7.75287 37.7489 7.98234 38.9596C9.03793 44.92 16.9778 49.6232 16.9778 49.6232C16.9778 49.6232 25.0553 45.0131 26.1568 39.0061C26.3863 37.7489 26.937 30.0655 26.937 30.0655C26.937 30.0655 27.2124 28.1563 25.6978 27.7837C24.1833 27.4112 22.4393 27.1784 20.6035 26.4799C19.4857 25.9761 18.3157 25.6012 17.1155 25.3623V25.3623Z" fill="#F6601B"/>
<path d="M16.1738 64H66.0434" stroke="#F6601B" stroke-width="3"/>
</svg>
