<svg width="43" height="43" viewBox="0 0 43 43" fill="none" xmlns="http://www.w3.org/2000/svg">
<path d="M37.9174 24.4467C37.9361 24.4008 37.9505 24.3533 37.9602 24.3047C38.0222 23.3301 38.0843 23.2762 39.0768 23.278C40.0693 23.2799 41.0618 23.278 42.05 23.278C42.6045 23.278 42.8315 23.4951 42.8315 24.0398C42.8315 28.3435 42.8315 32.6473 42.8315 36.951C42.8315 37.5044 42.6113 37.719 42.0586 37.7208C40.9421 37.7246 39.8236 37.7246 38.7033 37.7208C38.1941 37.7208 37.9844 37.5106 37.9757 36.9994C37.9662 36.4205 37.9662 35.84 37.9757 35.2582C37.98 34.9908 37.8814 34.8904 37.6035 34.976C37.7092 35.3333 37.7306 35.7103 37.666 36.0773C37.6014 36.4444 37.4527 36.7914 37.2313 37.0912C36.9938 37.3731 36.6751 37.575 36.3187 37.6693C35.9623 37.7637 35.5855 37.7459 35.2395 37.6185C34.7215 38.8746 34.1056 39.1073 32.8494 38.7711C32.8266 39.119 32.7852 39.4654 32.7253 39.8088C32.5655 40.5704 32.1462 41.2528 31.5389 41.7393C30.9316 42.2259 30.1742 42.4863 29.3961 42.4762C20.7319 42.4787 12.0682 42.4787 3.40487 42.4762C2.96145 42.4831 2.52105 42.4019 2.10926 42.2373C1.69747 42.0726 1.32248 41.8279 1.00602 41.5172C0.689569 41.2065 0.437977 40.8361 0.265802 40.4274C0.0936276 40.0187 0.00430636 39.5799 0.00304605 39.1364C-0.00274357 29.354 -0.000285327 19.5714 0.0104668 9.78863C0.0223028 9.52837 0.126315 9.28079 0.30389 9.09015C3.18402 6.18459 6.08152 3.2964 8.96723 0.396423C9.09188 0.264253 9.24359 0.160534 9.41199 0.0923412C9.58038 0.0241485 9.7615 -0.00690834 9.94299 0.00128523C16.3703 0.0112103 22.7976 0.0134763 29.2249 0.00810023C29.6862 -0.0154243 30.1474 0.0567217 30.5796 0.220009C31.0117 0.383296 31.4054 0.634197 31.7358 0.956937C32.0663 1.27968 32.3265 1.66728 32.5 2.0954C32.6735 2.52352 32.7565 2.9829 32.744 3.44466C32.7694 5.95012 32.7508 8.45558 32.7495 10.961C32.7495 14.6829 32.746 18.4048 32.739 22.1267C32.7327 22.2358 32.7594 22.3443 32.8156 22.438C32.8718 22.5317 32.9549 22.6063 33.0541 22.6521C34.574 23.4952 36.2141 24.1004 37.9174 24.4467ZM10.2817 1.34674V1.87588C10.2817 4.39644 10.2817 6.91697 10.2817 9.43752C10.2817 10.1006 10.0863 10.2874 9.41884 10.2874H1.85779H1.30755V10.7942C1.30755 15.8204 1.30613 20.8468 1.30323 25.8734C1.30323 30.2202 1.30446 34.567 1.30694 38.9137C1.27997 39.4704 1.46555 40.0166 1.82613 40.4416C2.04605 40.6818 2.31734 40.8694 2.61978 40.9903C2.92221 41.1113 3.24803 41.1624 3.57297 41.14C10.1855 41.1314 16.7981 41.1295 23.4107 41.1345C25.4639 41.1345 27.5172 41.1388 29.5704 41.1233C30.0065 41.135 30.4305 40.9791 30.7552 40.6876C31.0798 40.3961 31.2803 39.9912 31.3154 39.5564L30.2025 39.3517C30.1021 39.5363 29.966 39.6992 29.8023 39.831C29.6385 39.9628 29.4503 40.0609 29.2484 40.1195C29.0466 40.1782 28.8351 40.1963 28.6262 40.1728C28.4173 40.1493 28.2152 40.0846 28.0314 39.9825C27.6602 39.8461 27.3079 39.6628 26.9831 39.4373C25.5043 38.3461 24.0453 37.2277 22.5788 36.1229C22.2029 35.8401 21.8165 35.5727 21.4257 35.2917C21.3742 35.3916 21.3519 35.4158 21.3519 35.4375C21.3475 35.8903 21.3463 36.3438 21.3438 36.7966C21.3401 37.559 21.1788 37.7227 20.4307 37.7227H17.4147C16.6573 37.7227 16.4842 37.5552 16.4842 36.8133C16.4842 35.8363 16.4842 34.8593 16.4842 33.8823C16.4842 30.6112 16.4842 27.3403 16.4842 24.0696C16.4842 23.5522 16.6747 23.2898 17.1045 23.2842C18.3079 23.2694 19.512 23.2712 20.7154 23.2842C20.801 23.2796 20.8866 23.2935 20.9664 23.3249C21.0462 23.3563 21.1183 23.4044 21.1778 23.4662C21.2373 23.5279 21.2828 23.6017 21.3112 23.6826C21.3396 23.7635 21.3503 23.8496 21.3426 23.9349C21.3519 24.2606 21.3252 24.5875 21.3506 24.9113C21.363 25.0701 21.4325 25.3369 21.5218 25.3579C21.8605 25.4367 22.1676 25.8133 22.5702 25.482C23.8449 24.4275 25.137 23.3897 26.4105 22.3314C26.8695 21.9254 27.4433 21.672 28.0525 21.6063C28.63 21.561 29.2106 21.5733 29.7857 21.6429C30.3539 21.708 30.9115 21.8687 31.4897 21.9903C31.4984 21.8898 31.512 21.8042 31.512 21.7241C31.512 15.6641 31.5105 9.60378 31.5077 3.54329C31.5369 3.24819 31.5003 2.95029 31.4005 2.67104C31.3007 2.3918 31.1402 2.13818 30.9306 1.92843C30.721 1.71869 30.4675 1.55805 30.1883 1.4581C29.9091 1.35816 29.6112 1.32141 29.3161 1.35047C23.3975 1.34798 17.4786 1.34798 11.5595 1.35047L10.2817 1.34674ZM28.7789 38.9286L28.9303 38.7704C28.8872 38.5933 28.8248 38.4215 28.7442 38.258C28.4508 37.7916 28.1238 37.3474 27.8292 36.881C27.7741 36.8111 27.7343 36.7305 27.7123 36.6443C27.6903 36.5581 27.6866 36.4683 27.7015 36.3806C27.7165 36.2929 27.7496 36.2093 27.7988 36.1352C27.8481 36.0611 27.9123 35.9982 27.9874 35.9505C28.0641 35.9 28.1502 35.8654 28.2405 35.8488C28.3308 35.8322 28.4236 35.8338 28.5133 35.8537C28.6029 35.8736 28.6877 35.9114 28.7625 35.9646C28.8374 36.0179 28.9007 36.0856 28.9488 36.1639C29.259 36.6018 29.5866 37.0323 29.8607 37.4926C29.9585 37.6564 30.0897 37.7976 30.2459 37.9071C30.4021 38.0166 30.5797 38.0918 30.767 38.1278C30.9109 38.1619 31.1907 38.1371 31.2118 38.0738C31.2798 37.8919 31.2758 37.6909 31.2006 37.5118C30.9159 37.0243 30.5685 36.5745 30.2658 36.0969C30.2124 36.0257 30.1741 35.9444 30.1531 35.8579C30.1322 35.7715 30.1291 35.6816 30.144 35.5939C30.1589 35.5062 30.1916 35.4225 30.2399 35.3478C30.2883 35.2731 30.3513 35.2091 30.4252 35.1596C30.5002 35.1057 30.5858 35.0682 30.6763 35.0496C30.7668 35.031 30.8602 35.0317 30.9504 35.0517C31.0407 35.0716 31.1257 35.1104 31.1999 35.1654C31.2741 35.2205 31.3358 35.2906 31.3811 35.3711C31.7018 35.8196 31.9822 36.3016 32.3364 36.7203C32.5899 37.0156 32.8925 37.2649 33.2309 37.4572C33.6688 37.7053 33.8512 37.5906 33.8922 37.0919C33.8966 36.9265 33.851 36.7637 33.7613 36.6248C33.4753 36.1701 33.1571 35.7358 32.8655 35.2849C32.8035 35.2159 32.7571 35.1345 32.7293 35.046C32.7015 34.9576 32.6931 34.8642 32.7046 34.7722C32.716 34.6802 32.7472 34.5917 32.7958 34.5128C32.8444 34.4339 32.9095 34.3663 32.9865 34.3147C33.0623 34.255 33.1505 34.2128 33.2446 34.1913C33.3387 34.1698 33.4364 34.1694 33.5306 34.1903C33.6249 34.2111 33.7133 34.2526 33.7895 34.3118C33.8658 34.3709 33.928 34.4463 33.9716 34.5324C34.2991 34.976 34.5919 35.4486 34.9448 35.8692C35.1437 36.079 35.3818 36.2477 35.6458 36.3655C35.8542 36.4709 36.1247 36.5516 36.281 36.2668C36.3673 36.1476 36.4078 36.0013 36.395 35.8547C36.3823 35.7081 36.3171 35.571 36.2115 35.4685C34.5367 33.5697 32.8811 31.6498 31.2186 29.7386C30.6169 29.047 30.0121 28.3584 29.3899 27.6469C29.2553 27.7567 29.1554 27.8547 29.0407 27.9292C28.2771 28.4843 27.4797 28.9913 26.6531 29.4471C26.0421 29.7986 25.3509 29.987 24.646 29.994C23.9412 30.0011 23.2464 29.8266 22.6285 29.4874C22.1235 29.1232 21.6579 28.7074 21.239 28.2468C21.2644 28.2139 21.2359 28.2337 21.2359 28.2536C21.2315 30.0655 21.2272 31.8775 21.2359 33.6894C21.2395 33.7411 21.2553 33.7911 21.282 33.8354C21.3088 33.8798 21.3457 33.9171 21.3897 33.9444C22.4082 34.2781 23.0999 35.0789 23.9249 35.6887C25.1655 36.6043 26.4062 37.5161 27.6667 38.4007C28.0218 38.6078 28.3939 38.7844 28.7789 38.9286ZM37.8783 25.8617C37.637 25.7916 37.405 25.7376 37.1811 25.6563C35.7066 25.1384 34.1967 24.6967 32.7719 24.0658C31.7967 23.5903 30.7725 23.2227 29.7174 22.9697C28.7615 22.7762 27.8261 22.7216 26.9881 23.4356C25.5861 24.626 24.1544 25.7816 22.7122 26.923C22.6398 26.9586 22.5772 27.0114 22.5298 27.0766C22.4823 27.1419 22.4516 27.2178 22.4401 27.2976C22.4286 27.3775 22.4367 27.4589 22.4638 27.5349C22.4909 27.6109 22.5362 27.6792 22.5956 27.7338C22.901 28.1371 23.324 28.4358 23.8062 28.5887C24.2885 28.7416 24.8064 28.7411 25.2884 28.5873C26.4374 28.2664 27.4876 27.6623 28.3428 26.8306C28.489 26.6617 28.6723 26.5289 28.8783 26.4425C29.0843 26.3561 29.3075 26.3185 29.5304 26.3326C29.7533 26.3466 29.97 26.412 30.1635 26.5235C30.357 26.6351 30.5222 26.7899 30.646 26.9757C30.8204 27.1804 31.0003 27.3802 31.1752 27.5843C32.9253 29.6255 34.6773 31.6651 36.4311 33.7031C36.479 33.7528 36.5371 33.7916 36.6013 33.817C36.6655 33.8423 36.7344 33.8536 36.8033 33.8501C37.1594 33.7949 37.5074 33.6907 37.879 33.602L37.8783 25.8617ZM17.8136 24.6353V36.3593H20.0045V24.6353H17.8136ZM39.2964 24.6297V36.363H41.4966V24.6297H39.2964ZM8.92876 2.49991L2.44149 8.9512H8.92876V2.49991Z" fill="white"/>
<path d="M16.4068 14.7791C12.4161 14.7791 8.42539 14.7791 4.43469 14.7791C3.92975 14.7791 3.65616 14.5638 3.62825 14.1588C3.59847 13.7022 3.8615 13.4584 4.42102 13.4541C5.48238 13.4454 6.54374 13.4485 7.6051 13.4485H28.2374C28.3082 13.4485 28.3795 13.4454 28.4496 13.4485C28.9335 13.4764 29.2064 13.727 29.194 14.1308C29.1816 14.5347 28.9136 14.776 28.418 14.776C26.734 14.776 25.0501 14.776 23.3661 14.776H16.4037L16.4068 14.7791Z" fill="white"/>
<path d="M21.5237 4.49858H28.3199C28.9229 4.49858 29.1995 4.70886 29.1927 5.16789C29.1865 5.60211 28.9086 5.8155 28.3361 5.81488L15.0842 5.81054C14.8982 5.81054 14.7158 5.82295 14.5322 5.81054C14.44 5.81232 14.3485 5.79522 14.2633 5.76028C14.178 5.72535 14.1008 5.67332 14.0364 5.60742C13.972 5.54152 13.9218 5.46314 13.8889 5.37709C13.8559 5.29105 13.8409 5.19916 13.8448 5.1071C13.8585 4.72003 14.1048 4.50106 14.557 4.50044C16.8794 4.49713 19.2017 4.49651 21.5237 4.49858Z" fill="white"/>
<path d="M21.5417 8.98967C23.8485 8.98967 26.1552 8.98967 28.4619 8.98967C28.9582 8.98967 29.2063 9.23221 29.1846 9.66767C29.1666 10.0684 28.9365 10.2781 28.4812 10.2799C26.9812 10.2861 25.4813 10.2849 23.9808 10.2849C20.8672 10.2849 17.7538 10.2836 14.6407 10.2812C14.1686 10.2812 13.8895 10.0665 13.8498 9.69311C13.8032 9.25889 14.052 8.99276 14.5377 8.99028C16.1083 8.9816 17.6796 8.98284 19.2521 8.9816C20.0163 8.9816 20.7814 8.9816 21.5473 8.9816L21.5417 8.98967Z" fill="white"/>
<path d="M9.39093 37.2035C7.75081 37.2035 6.11088 37.2035 4.47118 37.2035C4.11015 37.2035 3.78263 37.1415 3.65671 36.747C3.49419 36.2358 3.80991 35.8593 4.40541 35.858C6.38464 35.8543 8.36387 35.8543 10.3431 35.858C11.6861 35.858 13.0297 35.8624 14.3752 35.858C14.5234 35.8435 14.6728 35.8713 14.806 35.9382C14.9391 36.005 15.0506 36.1082 15.1276 36.2358C15.403 36.6992 15.0848 37.1892 14.4831 37.1973C13.4906 37.2103 12.5037 37.2023 11.5143 37.2029H9.39339L9.39093 37.2035Z" fill="white"/>
</svg>
