<svg width="111" height="122" viewBox="0 0 111 122" fill="none" xmlns="http://www.w3.org/2000/svg">
<g opacity="0.2">
<path d="M107.456 30.0034C107.217 26.3228 104.983 23.0627 101.634 21.4818L58.2619 0.983818C55.4829 -0.327939 52.2596 -0.327939 49.4831 0.983818L6.10808 21.4818C2.75928 23.0651 0.525949 26.3252 0.286922 30.0034C-3.78137 92.5834 36.5418 115.385 49.7607 121.144C52.3828 122.285 55.3598 122.285 57.9818 121.144C71.2007 115.385 111.526 92.5834 107.456 30.0034Z" fill="#B7B7B7"/>
</g>
<path d="M99.5998 36.3965C99.3945 33.2588 97.492 30.4792 94.6357 29.129L57.6493 11.6509C55.2807 10.5313 52.5307 10.5313 50.1622 11.6509L13.1757 29.1314C10.3219 30.4816 8.4169 33.2612 8.21168 36.3989C4.74458 89.7605 39.1283 109.204 50.4012 114.114C52.6369 115.087 55.1769 115.087 57.4127 114.114C68.6831 109.204 103.069 89.7605 99.5998 36.3965Z" fill="#F6601B"/>
<path d="M91.7522 39.0897C91.5832 36.4878 90.0042 34.1838 87.638 33.0642L56.9749 18.5749C55.012 17.6475 52.7328 17.6475 50.7699 18.5749L20.1068 33.0642C17.7407 34.1838 16.1617 36.4878 15.9926 39.0897C13.1147 83.3266 41.6217 99.4449 50.9655 103.517C52.8197 104.324 54.9251 104.324 56.777 103.517C66.1208 99.4449 94.6278 83.3266 91.7522 39.0897Z" fill="white"/>
<path d="M72.9439 81.7481C66.5312 89.8854 59.0296 94.2435 54.6354 96.2784C54.3577 96.4081 54.0583 96.461 53.7589 96.4417C53.5368 96.4297 53.3171 96.3745 53.1095 96.2784C48.7152 94.2435 41.2136 89.8854 34.8034 81.7481C26.3915 71.0763 22.5599 57.3077 23.4097 40.805C23.4435 40.1467 23.8395 39.5581 24.4383 39.2746L53.1022 25.7294C53.3123 25.6285 53.5344 25.5732 53.7614 25.5612C54.0632 25.5372 54.3698 25.5973 54.6499 25.7294L83.3138 39.2746C83.9126 39.5581 84.3061 40.1491 84.3399 40.805C85.1826 57.3077 81.3533 71.0763 72.9439 81.7481Z" fill="#F6601B"/>
<g opacity="0.1">
<path d="M72.9442 81.7481C66.5315 89.8854 59.0299 94.2435 54.6357 96.2784C54.3581 96.4081 54.0587 96.461 53.7593 96.4417V25.5612C54.0611 25.5372 54.3677 25.5973 54.6478 25.7294L83.3117 39.2746C83.9105 39.5581 84.3041 40.1491 84.3379 40.805C85.1829 57.3077 81.3536 71.0763 72.9442 81.7481Z" fill="black"/>
</g>
<path d="M39.9083 45.6472C37.09 45.6472 34.7949 47.9288 34.7949 50.7357V51.192H36.6538V50.7357C36.6538 48.9502 38.1141 47.497 39.9083 47.497C41.7025 47.497 43.1628 48.9491 43.1628 50.7357V51.192H45.0217V50.7357C45.0206 47.9288 42.7266 45.6472 39.9083 45.6472Z" fill="white"/>
<path d="M45.6994 52.055H34.117C33.7642 52.055 33.4785 52.3393 33.4785 52.6903V60.8689C33.4785 61.2199 33.7642 61.5042 34.117 61.5042H45.6994C46.0521 61.5042 46.3379 61.2199 46.3379 60.8689V52.6903C46.3379 52.3405 46.0521 52.055 45.6994 52.055ZM40.3638 57.1634L40.579 59.1957H39.2374L39.4526 57.1634C38.9188 56.9762 38.5343 56.4742 38.5343 55.8798C38.5343 55.1252 39.1492 54.5132 39.9076 54.5132C40.666 54.5132 41.2809 55.1252 41.2809 55.8798C41.2821 56.4754 40.8976 56.9762 40.3638 57.1634Z" fill="white"/>
<path d="M53.8418 51.6534C53.8418 48.3363 56.5442 45.6472 59.8778 45.6472H104.062C107.395 45.6472 110.098 48.3363 110.098 51.6534V69.6721C110.098 72.9892 107.395 75.6783 104.062 75.6783H59.8778C56.5442 75.6783 53.8418 72.9892 53.8418 69.6721V51.6534Z" fill="#F6601B"/>
<path fill-rule="evenodd" clip-rule="evenodd" d="M104.062 48.0497H59.8778C57.8777 48.0497 56.2562 49.6631 56.2562 51.6534V69.6721C56.2562 71.6624 57.8777 73.2758 59.8778 73.2758H104.062C106.062 73.2758 107.683 71.6624 107.683 69.6721V51.6534C107.683 49.6631 106.062 48.0497 104.062 48.0497ZM59.8778 45.6472C56.5442 45.6472 53.8418 48.3363 53.8418 51.6534V69.6721C53.8418 72.9892 56.5442 75.6783 59.8778 75.6783H104.062C107.395 75.6783 110.098 72.9892 110.098 69.6721V51.6534C110.098 48.3363 107.395 45.6472 104.062 45.6472H59.8778Z" fill="white"/>
<path d="M62.0654 62.5016L63.7779 60.4571L61.3262 59.7806L61.8165 58.3599L64.2154 59.3446L64.0343 56.6987H65.6411L65.445 59.3972L67.7911 58.4351L68.2739 59.8708L65.7845 60.5473L67.4365 62.5392L66.139 63.4261L64.751 61.2162L63.363 63.351L62.0654 62.5016Z" fill="white"/>
<path d="M73.1093 62.5016L74.8217 60.4571L72.37 59.7806L72.8604 58.3599L75.2593 59.3446L75.0782 56.6987H76.685L76.4889 59.3972L78.8349 58.4351L79.3177 59.8708L76.8283 60.5473L78.4804 62.5392L77.1829 63.4261L75.7949 61.2162L74.4068 63.351L73.1093 62.5016Z" fill="white"/>
<path d="M84.1532 62.5016L85.8656 60.4571L83.4139 59.7806L83.9043 58.3599L86.3031 59.3446L86.1221 56.6987H87.7289L87.5327 59.3972L89.8788 58.4351L90.3616 59.8708L87.8722 60.5473L89.5243 62.5392L88.2268 63.4261L86.8387 61.2162L85.4507 63.351L84.1532 62.5016Z" fill="white"/>
<path d="M95.1971 62.5016L96.9095 60.4571L94.4578 59.7806L94.9481 58.3599L97.347 59.3446L97.166 56.6987H98.7728L98.5766 59.3972L100.923 58.4351L101.405 59.8708L98.9161 60.5473L100.568 62.5392L99.2706 63.4261L97.8826 61.2162L96.4946 63.351L95.1971 62.5016Z" fill="white"/>
</svg>
