<svg width="78" height="95" viewBox="0 0 78 95" fill="none" xmlns="http://www.w3.org/2000/svg">
<path d="M63.8426 13.0899V92.6921L61.8517 95L59.8603 92.6921L57.8694 95L55.8785 92.6921L53.8876 95L51.8966 92.6921L49.9057 95L47.9148 92.6921L45.9239 95L43.9329 92.6921L41.942 95L39.9511 92.6921L37.9602 95L35.9697 92.6921L33.9788 95L31.9878 92.6921L29.9973 95L28.0064 92.6921L26.0155 95L24.025 92.6921L22.0341 95L20.0431 92.6921L18.0522 95L16.0613 92.6921L14.0708 95L12.0799 92.6921L10.089 95L8.09847 92.6921L6.10754 95L4.11662 92.6921L2.12569 95L0.134766 92.6921V13.0899H63.8426Z" fill="#F6601B"/>
<path d="M78 33.5358C75.8893 40.5803 70.6948 46.2918 63.9833 49.1048C62.7997 49.6007 61.5686 50.0068 60.2989 50.3139C58.4443 50.7624 56.5068 51 54.514 51C52.7814 51 51.0903 50.8204 49.459 50.4783C38.3456 48.1493 30 38.2946 30 26.4913C30 21.9291 31.2467 17.6579 33.4186 14H63.9833V33.5358H78Z" fill="white"/>
<path d="M76.7311 24.1197C76.7311 35.0297 69.1914 44.1784 59.0394 46.6355C57.2875 47.0599 55.4573 47.2844 53.5749 47.2844C40.7861 47.2844 30.4187 36.9132 30.4187 24.1202C30.4187 11.3263 40.7861 0.955078 53.5749 0.955078C66.3367 0.955078 76.6876 11.2823 76.7307 24.0388C76.7311 24.0658 76.7311 24.0928 76.7311 24.1197Z" fill="#39B54A"/>
<path d="M64.5272 20.6113L51.89 33.1154C51.6356 33.3669 51.3192 33.5208 50.9896 33.5766C50.4719 33.6645 49.9209 33.5105 49.5212 33.1154L43.4247 27.083C42.7706 26.4361 42.7706 25.3864 43.4247 24.7392L44.9043 23.2751C45.2424 22.941 45.6887 22.7793 46.1315 22.7905C46.5454 22.8008 46.957 22.9628 47.2731 23.2751L50.7053 26.6712L51.0515 26.3287L60.6785 16.8031C61.3187 16.1696 62.3478 16.1562 63.0048 16.7623C63.019 16.7755 63.0333 16.7889 63.0476 16.8031L64.2919 18.0343L64.5272 18.2671C64.5412 18.2809 64.5548 18.2947 64.5681 18.3091C64.6348 18.3797 64.6942 18.4548 64.7457 18.533C65.1706 19.1757 65.098 20.0465 64.5272 20.6113Z" fill="white"/>
<path d="M18.0345 69.7988H12.6192V66.3213H18.0345C18.8714 66.3213 19.5526 66.1826 20.0781 65.9052C20.6035 65.6178 20.9879 65.2215 21.2312 64.7163C21.4745 64.211 21.5961 63.6413 21.5961 63.0072C21.5961 62.3632 21.4745 61.7638 21.2312 61.209C20.9879 60.6542 20.6035 60.2084 20.0781 59.8715C19.5526 59.5347 18.8714 59.3662 18.0345 59.3662H14.1373V77.5117H9.7583V55.8739H18.0345C19.6986 55.8739 21.1242 56.181 22.3113 56.7952C23.5083 57.3996 24.423 58.2368 25.0555 59.3068C25.688 60.3768 26.0043 61.6004 26.0043 62.9775C26.0043 64.3744 25.688 65.5832 25.0555 66.6036C24.423 67.6241 23.5083 68.4117 22.3113 68.9666C21.1242 69.5214 19.6986 69.7988 18.0345 69.7988Z" fill="white"/>
<path d="M41.3453 70.3338H45.7096C45.622 71.7902 45.2279 73.0831 44.5273 74.2126C43.8364 75.342 42.8682 76.2238 41.6226 76.8578C40.3867 77.4919 38.8979 77.809 37.156 77.809C35.7937 77.809 34.5725 77.5712 33.4923 77.0956C32.4122 76.6102 31.4877 75.9166 30.719 75.0151C29.9599 74.1135 29.3809 73.0237 28.982 71.7456C28.583 70.4675 28.3835 69.0359 28.3835 67.4507V65.9497C28.3835 64.3645 28.5879 62.9329 28.9966 61.6549C29.415 60.3669 30.0086 59.2721 30.7773 58.3705C31.5558 57.469 32.4851 56.7754 33.5653 56.29C34.6454 55.8045 35.8521 55.5618 37.1852 55.5618C38.9563 55.5618 40.45 55.8887 41.6664 56.5426C42.8925 57.1965 43.8413 58.0981 44.5127 59.2473C45.1939 60.3966 45.6026 61.7044 45.7388 63.1707H41.3598C41.3112 62.2988 41.1409 61.5607 40.849 60.9564C40.557 60.3421 40.1143 59.8814 39.5207 59.5743C38.9368 59.2572 38.1583 59.0987 37.1852 59.0987C36.4554 59.0987 35.818 59.2374 35.2731 59.5148C34.7281 59.7923 34.2708 60.2133 33.901 60.778C33.5312 61.3428 33.2539 62.0561 33.069 62.9181C32.8938 63.7701 32.8063 64.7707 32.8063 65.92V67.4507C32.8063 68.5703 32.889 69.556 33.0544 70.4081C33.2198 71.2502 33.4728 71.9636 33.8134 72.5481C34.1637 73.1227 34.6114 73.5587 35.1563 73.8559C35.711 74.1432 36.3776 74.2869 37.156 74.2869C38.0708 74.2869 38.8249 74.1382 39.4185 73.841C40.0121 73.5438 40.4646 73.1029 40.776 72.5184C41.0971 71.9338 41.2869 71.2056 41.3453 70.3338Z" fill="white"/>
<path d="M53.2414 55.8739V77.5117H48.8771V55.8739H53.2414Z" fill="white"/>
<path d="M23.7231 25.4057C23.6887 24.88 23.3699 24.4142 22.8913 24.1879L16.6935 21.2592C16.2966 21.0716 15.8358 21.0716 15.4389 21.2592L9.24118 24.1883C8.76296 24.4146 8.44375 24.8804 8.40936 25.4061C7.82838 34.3479 13.59 37.6059 15.479 38.4288C15.8536 38.5919 16.2792 38.5919 16.6539 38.4288C18.5425 37.6059 24.3045 34.3479 23.7231 25.4057Z" fill="white"/>
<path d="M16.1217 24.9592C14.8278 24.9592 13.7742 26.0066 13.7742 27.2952V27.5047H14.6276V27.2952C14.6276 26.4756 15.298 25.8084 16.1217 25.8084C16.9454 25.8084 17.6158 26.475 17.6158 27.2952V27.5047H18.4692V27.2952C18.4687 26.0066 17.4156 24.9592 16.1217 24.9592Z" fill="#F6601B"/>
<path d="M18.7797 27.9009H13.4623C13.3004 27.9009 13.1692 28.0315 13.1692 28.1926V31.9473C13.1692 32.1085 13.3004 32.239 13.4623 32.239H18.7797C18.9416 32.239 19.0728 32.1085 19.0728 31.9473V28.1926C19.0728 28.032 18.9416 27.9009 18.7797 27.9009ZM16.3302 30.2462L16.4289 31.1792H15.8131L15.9118 30.2462C15.6668 30.1602 15.4903 29.9298 15.4903 29.6569C15.4903 29.3104 15.7726 29.0295 16.1207 29.0295C16.4689 29.0295 16.7512 29.3104 16.7512 29.6569C16.7517 29.9303 16.5752 30.1602 16.3302 30.2462Z" fill="#F6601B"/>
<rect x="0.134766" y="90.9551" width="63.7079" height="4.04494" fill="white"/>
</svg>
