<svg width="60" height="38" viewBox="0 0 60 38" fill="none" xmlns="http://www.w3.org/2000/svg">
<path d="M30.3963 8.32749L34.9472 17.5448L45.119 19.0227L37.7585 26.1975L39.4951 36.328L30.3969 31.5448L21.2987 36.328L23.0353 26.1975L15.6748 19.0227L25.8466 17.5448L30.3963 8.32749Z" stroke="white" stroke-width="1.2" stroke-miterlimit="10"/>
<path d="M30.3964 15.9029L32.6658 20.5017L37.7413 21.2394L34.0688 24.8191L34.9359 29.8742L30.3964 27.4873L25.8569 29.8742L26.724 24.8191L23.0515 21.2394L28.1269 20.5017L30.3964 15.9029Z" fill="white"/>
<path d="M23.67 15.2556L25.3688 11.8138L21.2736 11.2185L16.7227 2.00121L12.1718 11.2185L2 12.6964L9.36044 19.8712L7.62393 30.0017L16.646 25.2586" stroke="white" stroke-width="1.2" stroke-miterlimit="10"/>
<path d="M44.0933 25.3071L53.0208 30.0005L51.2843 19.87L58.6447 12.6952L48.4729 11.2173L43.922 2L39.3711 11.2173L35.4119 11.7928L37.1202 15.2544" stroke="white" stroke-width="1.2" stroke-miterlimit="10"/>
</svg>
