<svg width="87" height="81" viewBox="0 0 87 81" fill="none" xmlns="http://www.w3.org/2000/svg">
<path d="M29.1859 70.4476C29.9727 73.1451 29.7496 75.9979 29.4469 78.5022H38.218C39.4604 76.7779 40.5941 74.9776 41.6125 73.1116L42.0876 72.241L43.0747 72.3373C50.72 73.0824 58.4346 72.6334 65.9418 71.0064L67.623 70.642L67.7551 72.3572C67.9129 74.4062 67.8697 76.4644 67.6269 78.5022H76.4885C79.339 74.4204 80.4816 68.3105 81.3119 61.5501L81.3847 60.957L81.8454 60.5765C84.1789 58.6488 85.4383 54.7885 85.4978 50.3716C85.5567 45.9982 84.4252 41.5814 82.5558 38.8874L81.3105 37.0926L83.4328 36.575C84.1574 36.3982 84.5636 35.9618 84.7767 35.3643C85.01 34.7101 85.0006 33.8508 84.7291 33.0536C84.4541 32.2461 83.9891 31.718 83.543 31.5058C83.4811 31.4763 83.412 31.4493 83.3351 31.4279C83.5214 31.7246 83.6963 32.0349 83.843 32.3448C84.1032 32.8942 84.4343 33.7626 84.2638 34.6431C84.1658 35.1491 83.9025 35.6481 83.4256 36.0182C82.9761 36.3669 82.4506 36.5134 81.9624 36.5622L81.2357 36.6349L80.7304 36.1077C73.9418 29.0266 63.3731 25.8276 53.1439 25.7222C42.8629 25.6162 33.4167 28.634 28.8257 33.3951L27.6691 34.5946L26.5973 33.3187C24.6866 31.0441 22.0341 28.8393 19.0161 28.067C19.1934 28.5103 19.3392 28.9669 19.4601 29.4262C19.8882 31.053 20.0473 32.881 20.1103 34.6458L20.1452 35.6234L19.2647 36.0495C14.2622 38.4704 10.2408 42.5329 7.8708 47.5597L7.51317 48.3182L6.67968 48.4108C6.09126 48.4762 5.10873 48.4348 4.16083 48.3949C3.97729 48.3871 3.79506 48.3794 3.61723 48.3726C2.90215 48.3451 2.1871 48.3255 1.53288 48.336C1.47028 50.0785 1.4893 51.5562 1.65848 52.7968C1.86795 54.333 2.28723 55.3404 2.91162 56.0099C11.9708 65.4209 25.5421 68.9209 28.0266 69.3941L28.9287 69.5659L29.1859 70.4476Z" stroke="#F6601B" stroke-width="3"/>
<circle cx="51.1957" cy="14.1957" r="14.1957" fill="#F6601B"/>
<circle cx="51.5" cy="51.5" r="7.75" stroke="#828282" stroke-width="1.5"/>
<circle cx="51.5" cy="51.5" r="12.25" stroke="#828282" stroke-width="2.5"/>
<path fill-rule="evenodd" clip-rule="evenodd" d="M49.6959 4.93766C49.6959 4.25591 50.2486 3.70325 50.9303 3.70325C51.6121 3.70325 52.1647 4.25591 52.1647 4.93766V5.91495C52.8728 6.00849 53.5168 6.18828 54.0967 6.45433C54.9962 6.86463 55.6958 7.43537 56.1955 8.16655C56.6952 8.89773 56.953 9.74463 56.9688 10.7073H53.6942C53.6311 10.0708 53.3602 9.5763 52.8815 9.22386C52.4028 8.87143 51.7532 8.69521 50.9326 8.69521C50.375 8.69521 49.9042 8.77411 49.5202 8.93192C49.1362 9.08447 48.8416 9.29751 48.6365 9.57104C48.4366 9.84458 48.3367 10.1549 48.3367 10.5021C48.3261 10.7914 48.3866 11.0439 48.5181 11.2596C48.6549 11.4753 48.8416 11.662 49.0784 11.8198C49.3151 11.9724 49.5886 12.1065 49.899 12.2222C50.2093 12.3327 50.5407 12.4274 50.8931 12.5063L52.345 12.8535C53.0499 13.0113 53.6969 13.2217 54.286 13.4847C54.8752 13.7477 55.3854 14.0712 55.8168 14.4552C56.2481 14.8392 56.5821 15.2916 56.8189 15.8124C57.0608 16.3331 57.1844 16.9302 57.1897 17.6035C57.1844 18.5924 56.932 19.4498 56.4322 20.1758C55.9378 20.8964 55.2224 21.4566 54.286 21.8564C53.6645 22.1198 52.9574 22.2952 52.1647 22.3828V23.4538C52.1647 24.1356 51.6121 24.6882 50.9303 24.6882C50.2486 24.6882 49.6959 24.1356 49.6959 23.4538V22.3846C48.8901 22.2968 48.1609 22.1181 47.5082 21.8485C46.5455 21.4487 45.7933 20.857 45.2515 20.0732C44.715 19.2841 44.4335 18.3084 44.4072 17.1458H47.7133C47.7501 17.6877 47.9053 18.14 48.1788 18.503C48.4576 18.8607 48.8285 19.1316 49.2914 19.3157C49.7596 19.4946 50.2882 19.584 50.8774 19.584C51.456 19.584 51.9584 19.4998 52.3844 19.3315C52.8158 19.1632 53.1498 18.9291 53.3865 18.6292C53.6232 18.3294 53.7416 17.9849 53.7416 17.5956C53.7416 17.2326 53.6338 16.9275 53.4181 16.6803C53.2077 16.4331 52.8973 16.2227 52.487 16.0491C52.082 15.8755 51.5849 15.7177 50.9957 15.5757L49.2362 15.1338C47.8737 14.8024 46.798 14.2843 46.009 13.5794C45.2199 12.8745 44.828 11.925 44.8333 10.7309C44.828 9.75252 45.0884 8.89773 45.6145 8.16655C46.1457 7.43537 46.8743 6.86463 47.8001 6.45433C48.3821 6.19638 49.0141 6.01952 49.6959 5.92373V4.93766Z" fill="white"/>
</svg>
