<svg width="40" height="40" viewBox="0 0 40 40" fill="none" xmlns="http://www.w3.org/2000/svg">
<g clip-path="url(#clip0_347_9299)">
<path d="M19.9842 40.0004C13.6404 40.0004 7.29572 40.0004 0.95105 40C0.8161 39.9999 0.678719 40.0036 0.544174 39.9869C0.224023 39.9469 0.00356427 39.7023 0.00194325 39.3769C-0.00129879 38.1715 -0.00129879 36.9658 0.00194325 35.7604C0.00356427 35.397 0.256443 35.1496 0.614688 35.1414C0.796242 35.1374 0.978202 35.1353 1.15773 35.1422C1.1634 35.1424 1.16908 35.1425 1.17435 35.1425C1.29876 35.1425 1.34617 35.0836 1.33847 34.9564C1.33361 34.8658 1.33685 34.7743 1.33685 34.6833C1.33685 27.5674 1.33847 20.4516 1.33361 13.3362C1.33361 13.0524 1.41628 12.8376 1.6335 12.6551C2.82333 11.6547 4.0091 10.6482 5.19569 9.64374C5.95676 8.999 6.71864 8.35426 7.4797 7.70911C7.6572 7.55844 7.83309 7.40369 8.01302 7.25669C8.23186 7.0803 8.48028 7.06601 8.72546 7.17585C8.96618 7.28283 9.05047 7.49148 9.04561 7.74954C9.03345 8.35916 9.01805 8.96919 9.01967 9.57923C9.01967 10.3146 9.04318 11.0504 9.04318 11.7858C9.04561 19.488 9.04399 27.1901 9.04561 34.8919C9.04601 35.1601 9.04196 35.1503 9.30497 35.1438C9.32402 35.1433 9.34306 35.1431 9.36171 35.1431C9.55947 35.1431 9.75764 35.1679 9.95419 35.1679H9.95946C10.1183 35.1679 10.276 35.1502 10.434 35.1295C10.4648 35.1255 10.507 35.0703 10.511 35.036C10.5224 34.8752 10.5224 34.7135 10.5264 34.5518C10.5264 34.4999 10.5175 34.4481 10.5175 34.3962C10.5175 25.8819 10.5175 17.3667 10.5175 8.85201C10.5175 6.13218 10.5175 3.41235 10.5175 0.692515C10.5191 0.339725 10.6472 0.130665 10.9284 0.0359341C11.0111 0.00775987 11.1067 0.00286001 11.1951 0.00245169C17.0518 -0.00203985 22.9073 -0.00061072 28.7629 0.00163505C29.2638 0.00204337 29.4802 0.222537 29.4802 0.730081C29.481 6.30122 29.481 11.8728 29.481 17.4439C29.481 23.2429 29.481 29.0423 29.481 34.8417C29.481 35.1402 29.481 35.1402 29.7776 35.1402C30.1026 35.1402 30.4256 35.1317 30.7486 35.1438C30.7559 35.144 30.7628 35.1442 30.7693 35.1442C30.9168 35.1442 30.9569 35.0834 30.9569 34.9307C30.9521 33.2823 30.9545 31.6335 30.9545 29.9855C30.9561 25.6781 30.9569 21.3711 30.9569 17.0646C30.9569 13.9822 30.9569 10.9006 30.9512 7.81814C30.9512 7.52741 31.0096 7.27588 31.299 7.16319C31.5705 7.05733 31.8189 7.11266 32.0519 7.31141C33.4784 8.52617 34.9114 9.73112 36.3387 10.9422C36.6548 11.2092 36.9547 11.4934 37.2692 11.7601C37.6396 12.0737 38.0156 12.3803 38.3942 12.6837C38.5927 12.8438 38.6641 13.0455 38.6641 13.2986C38.6592 16.446 38.6608 19.5933 38.6608 22.7403C38.6608 26.7541 38.6608 30.7679 38.6608 34.7817C38.6608 35.1312 38.7516 35.2065 39.109 35.1773C39.2509 35.1656 39.4008 35.1736 39.5426 35.2002C39.8125 35.2516 39.9941 35.4578 39.9957 35.7314C40.0006 36.9564 40.0006 38.1818 39.9941 39.4067C39.9933 39.7093 39.768 39.9449 39.4624 39.9857C39.3287 40.0033 39.1941 39.9999 39.0555 40C32.6987 40.0004 26.3419 40.0004 19.9842 40.0004ZM14.7893 38.7363C16.7317 38.7363 18.6728 38.737 20.6148 38.7391C25.5824 38.7448 30.5517 38.7603 35.5193 38.7685C35.5262 38.7685 35.5335 38.7685 35.5404 38.7685C35.9849 38.7685 36.4299 38.7435 36.8753 38.7391C37.4386 38.7338 38.0011 38.7342 38.5635 38.7391C38.5664 38.7391 38.5688 38.7391 38.5717 38.7391C38.7119 38.7392 38.771 38.6958 38.7702 38.5403C38.7629 37.8273 38.7662 37.1148 38.7662 36.397C38.5441 36.3794 38.3334 36.35 38.1234 36.35C38.1234 36.35 38.1202 36.35 38.1182 36.35C37.8337 36.35 37.5488 36.3835 37.2643 36.3835C32.3948 36.386 27.526 36.3847 22.6581 36.3847C18.1055 36.3847 13.5529 36.3847 9.00022 36.3851C8.94146 36.3851 8.8831 36.386 8.82515 36.3847C8.39639 36.3725 7.96844 36.3525 7.53968 36.3504C7.53198 36.3504 7.52469 36.3503 7.51699 36.3503C7.22561 36.3503 6.93301 36.3803 6.64083 36.3835C6.03294 36.3891 5.42547 36.3851 4.81718 36.3851C3.69746 36.385 2.57936 36.3867 1.46167 36.3827H1.45802C1.30484 36.3827 1.22581 36.4094 1.22824 36.5954C1.23878 37.2467 1.23392 37.8988 1.22987 38.5501C1.22905 38.6799 1.26796 38.7379 1.40575 38.7387C2.57936 38.7465 3.75136 38.7628 4.92498 38.7681C4.93795 38.7682 4.95051 38.7682 4.96348 38.7682C5.34968 38.7682 5.7363 38.7395 6.12291 38.7391C9.01157 38.7379 11.901 38.7363 14.7893 38.7363ZM7.8266 9.10435C7.76743 9.12436 7.74636 9.12599 7.73339 9.13661C6.07185 10.5437 4.41274 11.952 2.75038 13.357C2.61989 13.4673 2.56964 13.5853 2.56964 13.7588C2.5745 20.8015 2.5745 27.8451 2.56964 34.8878C2.56964 35.0816 2.61746 35.1442 2.81198 35.1442C2.81401 35.1442 2.81563 35.1442 2.81765 35.1442C4.30777 35.1373 5.79668 35.1402 7.2868 35.1402C7.37515 35.1402 7.46349 35.1402 7.55184 35.1402C7.82579 35.1402 7.82579 35.1393 7.82579 34.8629C7.82579 30.8238 7.82579 26.7843 7.82579 22.7447C7.8266 18.283 7.8266 13.8217 7.8266 9.35996C7.8266 9.2836 7.8266 9.20725 7.8266 9.10435ZM33.8861 35.1403C34.988 35.1403 36.0895 35.1406 37.1922 35.1442H37.197C37.3628 35.1442 37.4288 35.104 37.4288 34.9172C37.4248 27.8471 37.4248 20.7774 37.4264 13.7078C37.428 13.5718 37.3891 13.4771 37.2829 13.3893C36.7342 12.9295 36.1896 12.4628 35.6425 11.9989C34.6788 11.1823 33.7143 10.3657 32.7498 9.54983C32.5739 9.40161 32.3972 9.25584 32.1719 9.06801V9.67722C32.1719 18.076 32.1719 26.4748 32.1719 34.8739C32.1719 35.1393 32.1735 35.1402 32.4385 35.1402C32.9212 35.1404 33.4034 35.1403 33.8861 35.1403ZM12.0153 1.25437C11.7495 1.25437 11.7478 1.25477 11.7478 1.51896C11.7478 3.62876 11.7478 5.73855 11.7478 7.84835C11.7478 12.0765 11.7478 16.3051 11.7478 20.5337C11.7478 25.3143 11.7478 30.0954 11.7478 34.8764C11.7478 35.1406 11.7478 35.1402 12.0186 35.1402C17.3412 35.1402 22.6622 35.1402 27.9848 35.1402H27.9872C28.2498 35.1402 28.2506 35.1398 28.2506 34.8707C28.2506 29.313 28.2506 23.7553 28.2498 18.1973C28.2498 12.64 28.2498 7.08193 28.2498 1.52427C28.2498 1.25518 28.2498 1.25477 27.984 1.25437C22.6622 1.25437 17.3404 1.25437 12.0177 1.25437H12.0153Z" fill="white"/>
<path d="M16.3118 3.0492C17.0101 3.0492 17.7083 3.04971 18.407 3.05094C18.8625 3.05175 19.083 3.28409 19.083 3.74059C19.083 4.58092 19.083 5.42165 19.083 6.26198C19.083 7.1023 19.083 7.94304 19.083 8.78336C19.083 9.22558 18.8658 9.45791 18.4281 9.48445C18.3762 9.48813 18.3243 9.4865 18.2741 9.4865C16.9724 9.4865 15.674 9.4865 14.3739 9.4865C14.3285 9.4865 14.2835 9.48762 14.2377 9.48568C13.7822 9.47016 13.5472 9.23129 13.5456 8.77438C13.5423 7.58862 13.544 6.40285 13.5456 5.21708C13.5456 4.71526 13.5423 4.21384 13.5472 3.71201C13.5521 3.28491 13.7887 3.05094 14.2167 3.05053C14.9153 3.04971 15.6136 3.0492 16.3118 3.0492ZM16.3114 4.30612C15.8798 4.30612 15.4478 4.30377 15.0158 4.29877C15.013 4.29877 15.0098 4.29877 15.0069 4.29877C14.831 4.29877 14.784 4.35961 14.7857 4.53151C14.7938 5.11133 14.7889 5.69115 14.7889 6.27096C14.7889 6.85078 14.7954 7.4306 14.784 8.01C14.7808 8.18364 14.8371 8.22764 14.9956 8.22764C14.9984 8.22764 15.0017 8.22764 15.0045 8.22764C15.8839 8.21988 16.7637 8.22029 17.6435 8.22601C17.6459 8.22601 17.6484 8.22601 17.6508 8.22601C17.7995 8.22601 17.8559 8.18813 17.8559 8.02144C17.8478 6.85568 17.8478 5.68951 17.8542 4.52375C17.8559 4.35746 17.8101 4.29958 17.6427 4.29958C17.6403 4.29958 17.6378 4.29958 17.6354 4.29958C17.1945 4.30367 16.7532 4.30612 16.3114 4.30612Z" fill="white"/>
<path d="M17.6485 33.3145C17.0009 33.3147 16.3533 33.3135 15.7057 33.3133C15.2246 33.3133 14.7444 33.3133 14.2638 33.3125C13.7791 33.3125 13.5457 33.0806 13.5457 32.5955C13.5424 30.9336 13.5424 29.2726 13.544 27.6111C13.5457 27.1052 13.7515 26.899 14.2508 26.899C15.64 26.899 17.0308 26.8986 18.4217 26.8986C18.8707 26.8986 19.0831 27.1142 19.0831 27.5703C19.0831 28.4171 19.0831 29.2648 19.0831 30.1117C19.0831 30.9589 19.0814 31.8058 19.0831 32.6527C19.0831 33.0622 18.848 33.3068 18.433 33.3109C18.1716 33.3137 17.9098 33.3145 17.6485 33.3145ZM16.3314 32.0575C16.7703 32.0575 17.2092 32.059 17.6485 32.0622C17.6505 32.0622 17.6525 32.0622 17.6545 32.0622C17.8101 32.0622 17.8576 32.0153 17.8559 31.8523C17.8495 30.6805 17.8527 29.5074 17.8527 28.3347C17.8527 28.2722 17.8446 28.2093 17.8397 28.1464C17.796 28.1387 17.77 28.1297 17.7457 28.1297C16.8088 28.1285 15.8702 28.1297 14.9332 28.1244H14.932C14.7841 28.1244 14.789 28.2107 14.789 28.3151C14.7906 29.5004 14.7906 30.6862 14.7857 31.8719C14.7857 32.0126 14.8238 32.0622 14.9669 32.0622H14.9722C15.4252 32.0592 15.8783 32.0575 16.3314 32.0575Z" fill="white"/>
<path d="M15.4486 25.3595C15.0377 25.3595 14.6268 25.3594 14.2155 25.3593C13.7972 25.3589 13.546 25.1176 13.5444 24.6982C13.5427 22.9976 13.5411 21.2969 13.5444 19.5963C13.546 19.1839 13.794 18.9372 14.2009 18.9364C15.6099 18.9334 17.0202 18.933 18.4301 18.936C18.8499 18.9368 19.0818 19.183 19.0818 19.6122C19.0818 20.459 19.0818 21.3059 19.0818 22.1528C19.0818 23 19.0818 23.8473 19.0818 24.6942C19.0818 25.1233 18.8499 25.3589 18.4252 25.3589C17.4328 25.3592 16.4407 25.3595 15.4486 25.3595ZM14.7877 22.1479C14.7877 22.7407 14.7909 23.3336 14.7844 23.9265C14.7828 24.0702 14.8306 24.1172 14.9721 24.1172H14.9757C15.8677 24.1121 16.7609 24.1117 17.652 24.1172H17.6557C17.8052 24.1172 17.8546 24.0682 17.853 23.9147C17.8482 22.742 17.8482 21.5697 17.8546 20.397C17.8546 20.2429 17.804 20.1953 17.6577 20.1953C17.6557 20.1953 17.654 20.1953 17.652 20.1953C16.7605 20.2007 15.8673 20.2007 14.9757 20.1961H14.9725C14.829 20.1961 14.7861 20.2474 14.7877 20.3892C14.7925 20.9756 14.7893 21.5619 14.7893 22.1479H14.7877Z" fill="white"/>
<path d="M21.6449 9.48786C21.2206 9.48786 20.8932 9.26084 20.9106 8.73523C20.9365 7.91491 20.9171 7.09336 20.9171 6.27264H20.9154C20.9154 5.41884 20.9154 4.56544 20.9154 3.71164C20.9154 3.29352 21.144 3.0522 21.5606 3.05098C22.977 3.0469 24.3937 3.0473 25.8093 3.05057C26.2113 3.0518 26.4496 3.29311 26.4512 3.70062C26.4561 5.40087 26.4561 7.10153 26.4528 8.80219C26.4512 9.24563 26.2 9.48205 25.7331 9.4845C24.893 9.48878 24.0517 9.48613 23.2124 9.48613C22.6941 9.48623 22.177 9.48092 21.6595 9.48776C21.6546 9.48786 21.6498 9.48786 21.6449 9.48786ZM22.3496 4.29922C22.1932 4.29922 22.1426 4.35322 22.1458 4.51195C22.1523 5.09871 22.1474 5.68506 22.1474 6.27141C22.1474 6.85776 22.1507 7.44411 22.1458 8.03087C22.1442 8.17103 22.1754 8.22778 22.3273 8.22564C23.2323 8.21941 24.1372 8.22115 25.0442 8.22523H25.0462C25.1743 8.22523 25.2257 8.18889 25.2257 8.04884C25.2209 6.86307 25.2225 5.6773 25.2257 4.49113C25.2257 4.35148 25.1799 4.30044 25.0381 4.30044C25.0361 4.30044 25.0328 4.30044 25.0328 4.30044C24.1401 4.30626 23.2469 4.30626 22.3549 4.29922H22.3496Z" fill="white"/>
<path d="M16.3228 11.0005C17.0307 11.0005 17.7387 11.0008 18.4471 11.0014C18.8507 11.0014 19.0809 11.2354 19.0825 11.6458C19.0825 12.4992 19.0825 13.3526 19.0825 14.206C19.0825 15.0593 19.0825 15.9131 19.0825 16.7661C19.0825 17.1753 18.8524 17.4137 18.4471 17.4141C17.0303 17.4163 15.6152 17.4163 14.1984 17.4137C13.7867 17.4137 13.5484 17.1769 13.5468 16.7572C13.5435 15.0573 13.5419 13.3566 13.5468 11.6564C13.5468 11.2346 13.7851 11.0023 14.1984 11.0014C14.9068 11.0008 15.6148 11.0005 16.3228 11.0005ZM16.4265 12.2426C15.943 12.2426 15.46 12.2411 14.9765 12.2383H14.9741C14.8379 12.2383 14.7836 12.2734 14.7852 12.424C14.7901 13.6147 14.7901 14.8054 14.7852 15.9964C14.7852 16.1334 14.8156 16.19 14.9652 16.19H14.9684C15.8592 16.1826 16.7507 16.1809 17.6431 16.19C17.6455 16.19 17.6475 16.19 17.65 16.19C17.8222 16.19 17.8571 16.1286 17.8554 15.965C17.8457 15.386 17.8522 14.8066 17.8522 14.2276C17.8522 13.629 17.8473 13.0304 17.8538 12.4318C17.8554 12.2913 17.819 12.2391 17.6755 12.2391H17.6706C17.2561 12.2415 16.8411 12.2426 16.4265 12.2426Z" fill="white"/>
<path d="M21.5628 26.8985C22.978 26.8985 24.3931 26.8985 25.8083 26.8989C26.2151 26.8989 26.4518 27.1215 26.4534 27.5327C26.4567 29.2443 26.4567 30.9568 26.4518 32.6693C26.4502 33.0609 26.207 33.3084 25.8196 33.31C24.3976 33.3157 22.9759 33.3149 21.5547 33.31C21.1446 33.3088 20.916 33.0573 20.916 32.6432C20.9176 31.7968 20.9176 30.9503 20.9176 30.1039C20.916 29.2509 20.916 28.3979 20.9176 27.5453C20.9176 27.1154 21.1332 26.8985 21.5628 26.8985ZM25.08 32.0622C25.2263 32.0622 25.2247 31.9758 25.2247 31.8707C25.2247 30.6865 25.2214 29.502 25.2263 28.3179C25.2263 28.179 25.1931 28.1239 25.048 28.1239H25.0431C24.1451 28.1296 23.247 28.1311 22.349 28.1243C22.347 28.1243 22.3453 28.1243 22.3433 28.1243C22.1845 28.1243 22.1447 28.1756 22.1447 28.3354C22.1512 29.5069 22.148 30.678 22.1496 31.8494C22.1496 31.9127 22.1529 31.9756 22.1577 32.0381C22.1999 32.0471 22.2242 32.0569 22.2501 32.0569C23.1935 32.0585 24.137 32.0573 25.0788 32.0622H25.08Z" fill="white"/>
<path d="M23.6734 18.9346C24.3685 18.9346 25.0635 18.935 25.7581 18.9358C26.2152 18.9362 26.4567 19.1755 26.4535 19.6341C26.4502 20.1387 26.4259 20.6438 26.4276 21.1485C26.4324 22.3008 26.4357 23.4527 26.46 24.6041C26.4697 25.0714 26.1901 25.3675 25.7232 25.3675C25.7159 25.3675 25.7086 25.3674 25.7013 25.3673C24.4467 25.3427 23.1916 25.3586 21.9357 25.3588C21.7452 25.3591 21.5544 25.3585 21.3651 25.3367C21.1122 25.3065 20.9177 25.0255 20.9177 24.6915C20.9161 23.8316 20.9177 22.9721 20.9177 22.1126C20.9177 21.2788 20.9177 20.445 20.9177 19.6112C20.9177 19.1739 21.1511 18.9362 21.5888 18.9358C22.2834 18.935 22.9784 18.9346 23.6734 18.9346ZM25.0156 24.1179C25.1753 24.1179 25.228 24.065 25.228 23.8953C25.2183 23.2203 25.2248 22.545 25.2248 21.8696C25.2248 21.3788 25.2199 20.8872 25.2264 20.3964C25.228 20.2458 25.1773 20.195 25.0343 20.195C25.0302 20.195 25.0262 20.195 25.0221 20.1951C24.5962 20.2024 24.1679 20.1984 23.7403 20.1984C23.3018 20.1979 22.8637 20.1984 22.4269 20.1984C22.4163 20.1984 22.4066 20.1984 22.3969 20.1984C22.1464 20.1984 22.1481 20.2082 22.1481 20.4736C22.1432 21.6254 22.1416 22.7769 22.1302 23.9288C22.1302 24.1214 22.2247 24.163 22.3847 24.157C22.7284 24.1419 23.072 24.1207 23.4157 24.1162C23.9462 24.1097 24.4763 24.1093 25.0043 24.1178C25.0079 24.1179 25.012 24.1179 25.0156 24.1179Z" fill="white"/>
<path d="M22.9676 11.0007C23.8985 11.0007 24.8289 11.0009 25.7606 11.0009C26.2258 11.0009 26.4528 11.225 26.4528 11.6954C26.4544 13.3765 26.4544 15.0571 26.4528 16.7378C26.4528 17.1771 26.2145 17.4136 25.78 17.4144C24.3779 17.4156 22.9741 17.4156 21.5719 17.4144C21.1407 17.414 20.917 17.182 20.917 16.7468C20.917 15.9003 20.917 15.0531 20.917 14.2062C20.917 13.3593 20.917 12.5125 20.917 11.6652C20.917 11.2303 21.1423 11.0009 21.5719 11.0009C22.0371 11.0008 22.5023 11.0007 22.9676 11.0007ZM25.0105 16.1906C25.1912 16.1906 25.2273 16.1251 25.2273 15.955C25.2208 14.7901 25.2192 13.6252 25.2273 12.4602C25.2273 12.292 25.1815 12.2373 25.0174 12.2373C25.0149 12.2373 25.0125 12.2373 25.0101 12.2373C24.1185 12.2451 23.2269 12.2451 22.3354 12.2377H22.3305C22.1725 12.2377 22.1425 12.2999 22.1441 12.4435C22.1506 13.029 22.1473 13.6149 22.1473 14.2005C22.1473 14.7925 22.1522 15.385 22.1425 15.9775C22.1409 16.1361 22.1838 16.189 22.3427 16.189C22.3447 16.189 22.3463 16.189 22.3484 16.189C23.2334 16.1821 24.1169 16.1804 25.002 16.1906C25.0048 16.1906 25.0076 16.1906 25.0105 16.1906Z" fill="white"/>
<path d="M35.3424 32.0586C35.4717 32.0586 35.6013 32.0592 35.731 32.0609C36.1395 32.0654 36.3924 32.3112 36.3892 32.6921C36.3859 33.0596 36.1266 33.3095 35.7343 33.312C35.1199 33.3152 34.5055 33.3148 33.8912 33.312C33.4892 33.3095 33.2201 33.0568 33.2168 32.6876C33.2136 32.3279 33.4908 32.0662 33.8863 32.0613C34.1915 32.0588 34.4966 32.0609 34.7989 32.0609V32.0596C34.9797 32.0596 35.1608 32.0586 35.3424 32.0586Z" fill="white"/>
<path d="M34.1882 22.076C34.0735 22.076 33.9588 22.0757 33.8442 22.0748C33.4859 22.0715 33.2298 21.8334 33.2168 21.4941C33.2006 21.1336 33.447 20.842 33.8117 20.8347C34.4759 20.8207 35.1422 20.8215 35.8088 20.8347C36.1573 20.8416 36.3956 21.1315 36.3843 21.4896C36.3729 21.8343 36.1217 22.0711 35.7634 22.0748C35.7586 22.0748 35.7505 22.0748 35.744 22.0748C35.2277 22.0748 34.709 22.076 34.1882 22.076Z" fill="white"/>
<path d="M35.3714 26.4408C35.4861 26.4408 35.6008 26.4412 35.715 26.4424C36.1219 26.4465 36.3861 26.6936 36.3878 27.0651C36.391 27.431 36.1414 27.6935 35.7458 27.7013C35.1201 27.7129 34.4928 27.7121 33.8638 27.7013C33.4732 27.6939 33.2154 27.4281 33.217 27.0692C33.2187 26.7013 33.4878 26.4477 33.8914 26.4428C34.1965 26.4394 34.4993 26.4424 34.8024 26.4424C34.9921 26.442 35.1821 26.4408 35.3714 26.4408Z" fill="white"/>
<path d="M34.2494 16.4631C34.1108 16.4631 33.9718 16.4628 33.8328 16.4618C33.4875 16.4593 33.2281 16.2062 33.2184 15.8669C33.2071 15.5092 33.4486 15.2315 33.8052 15.2262C34.4698 15.216 35.1377 15.2148 35.8023 15.2266C36.1622 15.2328 36.394 15.5067 36.3859 15.8701C36.3778 16.2156 36.1249 16.461 35.7731 16.4626C35.4477 16.4635 35.1267 16.4626 34.8038 16.4626C34.6186 16.4626 34.4342 16.4631 34.2494 16.4631Z" fill="white"/>
<path d="M5.76213 22.0763C5.38808 22.0763 5.01443 22.0756 4.64038 22.0756C4.50219 22.0756 4.3636 22.0753 4.2254 22.0743C3.87607 22.0723 3.61509 21.8175 3.61185 21.4802C3.60861 21.1213 3.85176 20.8391 4.19947 20.8342C4.8576 20.8243 5.51736 20.8247 6.17549 20.8334C6.5313 20.8379 6.78418 21.1139 6.78094 21.4626C6.77689 21.8162 6.52482 22.0706 6.16414 22.0743C6.03 22.0758 5.89627 22.0763 5.76213 22.0763Z" fill="white"/>
<path d="M5.77604 32.0591C5.89803 32.0591 6.02041 32.0597 6.14239 32.0617C6.51118 32.0683 6.77946 32.3308 6.78189 32.6791C6.78432 33.0331 6.5282 33.3055 6.15536 33.3104C5.50817 33.3187 4.8622 33.3173 4.21662 33.3075C3.85108 33.3014 3.6128 33.0421 3.6128 32.6807C3.61198 32.321 3.84865 32.0809 4.22311 32.0605C4.23405 32.0601 4.24783 32.0607 4.26039 32.0605C4.5769 32.0599 4.89381 32.0605 5.21112 32.0605C5.39956 32.0605 5.58801 32.0591 5.77604 32.0591Z" fill="white"/>
<path d="M4.62986 26.4408C4.82236 26.4408 5.01526 26.4418 5.20816 26.4418C5.5125 26.4418 5.81685 26.4386 6.12079 26.4439C6.51065 26.45 6.77649 26.7028 6.78298 27.0637C6.78703 27.4198 6.5455 27.6884 6.1597 27.6978C5.51413 27.7144 4.86572 27.7131 4.22096 27.6995C3.84731 27.6917 3.60497 27.4165 3.61146 27.0523C3.61713 26.7019 3.88541 26.4467 4.25905 26.4427C4.38265 26.4412 4.50626 26.4408 4.62986 26.4408Z" fill="white"/>
<path d="M5.8638 16.4639C5.63686 16.464 5.41276 16.4623 5.18622 16.4624C4.87012 16.4625 4.55443 16.4635 4.2363 16.4624C3.87887 16.4616 3.62356 16.224 3.61221 15.8814C3.59762 15.5098 3.8351 15.2391 4.20388 15.2252C4.48189 15.2149 4.75908 15.2225 5.03789 15.2224C5.41924 15.2225 5.80139 15.2162 6.18152 15.2248C6.50005 15.2326 6.72619 15.4384 6.77238 15.7385C6.8202 16.0406 6.66945 16.3203 6.38253 16.4236C6.27635 16.4612 6.15478 16.4559 6.03968 16.4608C5.98092 16.4631 5.92216 16.4639 5.8638 16.4639Z" fill="white"/>
</g>
<defs>
<clipPath id="clip0_347_9299">
<rect width="40" height="40" fill="white"/>
</clipPath>
</defs>
</svg>
