<svg width="46" height="40" viewBox="0 0 46 40" fill="none" xmlns="http://www.w3.org/2000/svg">
<path d="M10.3474 34.3934V3.15395C10.3474 3.15395 10.1936 1.18628 11.8285 1.18628H32.1095C33.8014 1.18628 33.7516 3.15395 33.7516 3.15395V34.3934" stroke="white" stroke-width="1.2"/>
<path d="M0 38.6153H46" stroke="white" stroke-width="1.2"/>
<path d="M33.7514 9.07977L43.5502 3.63599V34.3934M10.3431 12.346L1.63306 16.5408V34.3934" stroke="white" stroke-width="1.2" stroke-linejoin="round"/>
<rect x="14.6985" y="4.99694" width="2.72189" height="4.35503" fill="white"/>
<rect x="20.6868" y="4.99697" width="2.72189" height="4.35503" fill="white"/>
<rect x="26.6748" y="4.99697" width="2.72189" height="4.35503" fill="white"/>
<rect x="4.89941" y="19.1508" width="2.72189" height="2.72189" fill="white"/>
<rect x="37.5623" y="10.9851" width="2.72189" height="1.08876" fill="white"/>
<rect x="37.5623" y="15.8845" width="2.72189" height="1.08876" fill="white"/>
<rect x="37.5623" y="20.7839" width="2.72189" height="1.08876" fill="white"/>
<rect x="37.5623" y="25.6833" width="2.72189" height="1.08876" fill="white"/>
<rect x="37.5623" y="30.5827" width="2.72189" height="1.08876" fill="white"/>
<rect x="4.89941" y="24.0502" width="2.72189" height="2.72189" fill="white"/>
<rect x="4.89941" y="28.9496" width="2.72189" height="2.72189" fill="white"/>
<rect x="14.6985" y="13.1626" width="2.72189" height="4.35503" fill="white"/>
<rect x="20.6868" y="13.1626" width="2.72189" height="4.35503" fill="white"/>
<rect x="26.6748" y="13.1626" width="2.72189" height="4.35503" fill="white"/>
<rect x="14.6985" y="21.3283" width="2.72189" height="4.35503" fill="white"/>
<rect x="20.6868" y="21.3283" width="2.72189" height="4.35503" fill="white"/>
<rect x="26.6748" y="21.3283" width="2.72189" height="4.35503" fill="white"/>
<rect x="14.6985" y="29.494" width="2.72189" height="4.35503" fill="white"/>
<rect x="20.6868" y="29.494" width="2.72189" height="4.35503" fill="white"/>
<rect x="26.6748" y="29.494" width="2.72189" height="4.35503" fill="white"/>
</svg>
